<mxfile host="app.diagrams.net" modified="2021-01-28T12:21:01.909Z" agent="5.0 (Windows)" etag="_S1yRqAjaF5boTg3ZUvU" version="14.2.7" type="github">
  <diagram id="6MxjAhidh8VMmNFmY-1r" name="Page-1">
    <mxGraphModel dx="1043" dy="501" grid="1" gridSize="10" guides="1" tooltips="1" connect="1" arrows="1" fold="1" page="1" pageScale="1" pageWidth="827" pageHeight="1169" math="0" shadow="0">
      <root>
        <mxCell id="0" />
        <mxCell id="1" parent="0" />
        <mxCell id="15RppJiUgAy5fwv0_JGs-5" value="Application" style="strokeColor=#dddddd;shadow=1;strokeWidth=1;rounded=1;absoluteArcSize=1;arcSize=2;labelPosition=center;verticalLabelPosition=middle;align=center;verticalAlign=bottom;spacingLeft=0;fontColor=#999999;fontSize=12;whiteSpace=wrap;spacingBottom=2;" vertex="1" parent="1">
          <mxGeometry x="30" y="20" width="70" height="85" as="geometry" />
        </mxCell>
        <mxCell id="15RppJiUgAy5fwv0_JGs-6" value="" style="dashed=0;connectable=0;html=1;fillColor=#757575;strokeColor=none;shape=mxgraph.gcp2.application;part=1;" vertex="1" parent="15RppJiUgAy5fwv0_JGs-5">
          <mxGeometry x="0.5" width="50" height="40" relative="1" as="geometry">
            <mxPoint x="-25" y="15" as="offset" />
          </mxGeometry>
        </mxCell>
        <mxCell id="15RppJiUgAy5fwv0_JGs-7" value="Application" style="strokeColor=#dddddd;shadow=1;strokeWidth=1;rounded=1;absoluteArcSize=1;arcSize=2;labelPosition=center;verticalLabelPosition=middle;align=center;verticalAlign=bottom;spacingLeft=0;fontColor=#999999;fontSize=12;whiteSpace=wrap;spacingBottom=2;" vertex="1" parent="1">
          <mxGeometry x="30" y="140" width="70" height="85" as="geometry" />
        </mxCell>
        <mxCell id="15RppJiUgAy5fwv0_JGs-8" value="" style="dashed=0;connectable=0;html=1;fillColor=#757575;strokeColor=none;shape=mxgraph.gcp2.application;part=1;" vertex="1" parent="15RppJiUgAy5fwv0_JGs-7">
          <mxGeometry x="0.5" width="50" height="40" relative="1" as="geometry">
            <mxPoint x="-25" y="15" as="offset" />
          </mxGeometry>
        </mxCell>
        <mxCell id="15RppJiUgAy5fwv0_JGs-9" value="v1.0" style="text;html=1;strokeColor=none;fillColor=none;align=center;verticalAlign=middle;whiteSpace=wrap;rounded=0;" vertex="1" parent="1">
          <mxGeometry x="300" y="205" width="40" height="20" as="geometry" />
        </mxCell>
        <mxCell id="15RppJiUgAy5fwv0_JGs-16" value="" style="shape=image;html=1;verticalAlign=top;verticalLabelPosition=bottom;labelBackgroundColor=#ffffff;imageAspect=0;aspect=fixed;image=https://cdn0.iconfinder.com/data/icons/super-mono-reflection/red/button-check_red.png" vertex="1" parent="1">
          <mxGeometry x="700" y="26" width="64" height="64" as="geometry" />
        </mxCell>
        <mxCell id="15RppJiUgAy5fwv0_JGs-23" value="" style="endArrow=classic;html=1;exitX=1;exitY=0.5;exitDx=0;exitDy=0;entryX=0;entryY=0.25;entryDx=0;entryDy=0;" edge="1" parent="1" source="15RppJiUgAy5fwv0_JGs-5" target="15RppJiUgAy5fwv0_JGs-24">
          <mxGeometry width="50" height="50" relative="1" as="geometry">
            <mxPoint x="150" y="240" as="sourcePoint" />
            <mxPoint x="250.62999999999988" y="135.43999999999994" as="targetPoint" />
          </mxGeometry>
        </mxCell>
        <mxCell id="15RppJiUgAy5fwv0_JGs-18" value="" style="shape=image;html=1;verticalAlign=top;verticalLabelPosition=bottom;labelBackgroundColor=#ffffff;imageAspect=0;aspect=fixed;image=https://cdn0.iconfinder.com/data/icons/super-mono-reflection/green/button-check_green.png;imageBackground=#ffffff;" vertex="1" parent="1">
          <mxGeometry x="170" y="80" width="40" height="40" as="geometry" />
        </mxCell>
        <mxCell id="15RppJiUgAy5fwv0_JGs-24" value="" style="shape=image;html=1;verticalAlign=top;verticalLabelPosition=bottom;labelBackgroundColor=#ffffff;imageAspect=0;aspect=fixed;image=https://cdn4.iconfinder.com/data/icons/web-development-5/500/api-code-window-128.png" vertex="1" parent="1">
          <mxGeometry x="260" y="80" width="128" height="128" as="geometry" />
        </mxCell>
        <mxCell id="15RppJiUgAy5fwv0_JGs-31" value="" style="endArrow=classic;html=1;exitX=1;exitY=0.5;exitDx=0;exitDy=0;entryX=0;entryY=0.5;entryDx=0;entryDy=0;" edge="1" parent="1" source="15RppJiUgAy5fwv0_JGs-7" target="15RppJiUgAy5fwv0_JGs-24">
          <mxGeometry width="50" height="50" relative="1" as="geometry">
            <mxPoint x="100" y="182.5" as="sourcePoint" />
            <mxPoint x="260" y="144" as="targetPoint" />
          </mxGeometry>
        </mxCell>
        <mxCell id="15RppJiUgAy5fwv0_JGs-30" value="" style="shape=image;html=1;verticalAlign=top;verticalLabelPosition=bottom;labelBackgroundColor=#ffffff;imageAspect=0;aspect=fixed;image=https://cdn0.iconfinder.com/data/icons/super-mono-reflection/green/button-check_green.png;imageBackground=#ffffff;" vertex="1" parent="1">
          <mxGeometry x="170" y="146" width="40" height="40" as="geometry" />
        </mxCell>
      </root>
    </mxGraphModel>
  </diagram>
</mxfile>
